<?xml version="1.0" standalone="no"?><!DOCTYPE svg PUBLIC "-//W3C//DTD SVG 1.1//EN" "http://www.w3.org/Graphics/SVG/1.1/DTD/svg11.dtd"><svg t="1772871485704" class="icon" viewBox="0 0 1024 1024" version="1.1" xmlns="http://www.w3.org/2000/svg" p-id="3600" width="650" height="650" xmlns:xlink="http://www.w3.org/1999/xlink"><path d="M944.128 641.024l-56.32-56.32c-19.456-19.456-51.2-19.456-70.656 0l-145.408 145.408-101.888 101.888v97.28c0 16.896 13.824 30.208 30.208 30.208h96.768l101.888-101.888 145.408-145.408c19.456-19.968 19.456-51.712 0-71.168z m-64 49.664l-208.384 208.384h-42.496v-42.496l208.384-208.384c7.68-7.68 20.48-7.68 28.16 0l14.336 14.336c8.192 7.68 8.192 19.968 0 28.16z" fill="#FFDD11" p-id="3601"></path><path d="M845.312 512c-16.384 0-30.208-13.312-30.208-30.208V144.896c0-11.264-8.704-19.968-19.968-19.968h-650.24c-11.264 0-19.968 8.704-19.968 19.968v734.208c0 11.264 8.704 19.968 19.968 19.968h306.176c16.384 0 30.208 13.312 30.208 30.208 0 16.384-13.312 30.208-30.208 30.208H115.2c-27.648 0-50.176-22.528-50.176-50.176V115.2c0-27.648 22.528-50.176 50.176-50.176h710.144c27.648 0 50.176 22.528 50.176 50.176v367.104c0 16.384-13.824 29.696-30.208 29.696z" fill="#0c536d" p-id="3602" data-spm-anchor-id="a313x.search_index.0.i0.6f393a81zGGYr9" class=""></path><path d="M216.576 367.104c0-16.384 13.312-30.208 30.208-30.208h448c16.384 0 30.208 13.312 30.208 29.696 0 16.384-13.312 30.208-29.696 30.208H246.272c-16.384 0-29.696-13.312-29.696-29.696zM581.12 542.208H246.272c-16.384 0-30.208-13.312-30.208-30.208 0-16.384 13.312-30.208 30.208-30.208h334.848c16.384 0 30.208 13.312 30.208 30.208 0 16.384-13.312 30.208-30.208 30.208zM246.272 687.104c-16.384 0-30.208-13.312-30.208-29.696s13.312-30.208 29.696-30.208H467.456c16.384 0 30.208 13.312 30.208 29.696 0 16.384-13.312 30.208-29.696 30.208H246.272z" fill="#032e3e" p-id="3603" data-spm-anchor-id="a313x.search_index.0.i1.6f393a81zGGYr9" class=""></path></svg>