<?xml version="1.0" standalone="no"?><!DOCTYPE svg PUBLIC "-//W3C//DTD SVG 1.1//EN" "http://www.w3.org/Graphics/SVG/1.1/DTD/svg11.dtd"><svg t="1772940007263" class="icon" viewBox="0 0 1024 1024" version="1.1" xmlns="http://www.w3.org/2000/svg" p-id="9874" data-spm-anchor-id="a313x.search_index.0.i49.26903a81JS179x" width="500" height="500" xmlns:xlink="http://www.w3.org/1999/xlink"><path d="M868.169505 316.223366a382.327129 382.327129 0 0 0-711.832079 0A116.695446 116.695446 0 0 0 70.970297 428.356436v162.217821a116.594059 116.594059 0 0 0 233.188119 0v-162.217821A116.695446 116.695446 0 0 0 211.998416 314.29703a332.039604 332.039604 0 0 1 600.408713 0A116.695446 116.695446 0 0 0 719.841584 428.356436v162.217821a116.695446 116.695446 0 0 0 66.712079 105.238812C753.096238 743.667327 699.564356 794.056238 648.871287 818.287525A60.831683 60.831683 0 0 0 588.039604 760.39604H435.960396a60.831683 60.831683 0 0 0-60.831683 60.831683v70.970297a60.831683 60.831683 0 0 0 60.831683 60.831683h152.079208a60.831683 60.831683 0 0 0 60.831683-60.831683v-19.060594c73.099406-26.867327 150.96396-101.386139 190.808713-166.171881A116.695446 116.695446 0 0 0 953.029703 590.574257v-162.217821a116.796832 116.796832 0 0 0-84.860198-112.13307zM253.465347 428.356436v162.217821a65.90099 65.90099 0 0 1-131.801981 0v-162.217821a65.90099 65.90099 0 0 1 131.801981 0zM598.178218 892.19802a10.138614 10.138614 0 0 1-10.138614 10.138614H435.960396a10.138614 10.138614 0 0 1-10.138614-10.138614v-70.970297a10.138614 10.138614 0 0 1 10.138614-10.138614h152.079208a10.138614 10.138614 0 0 1 10.138614 10.138614z m304.158416-301.623763a65.90099 65.90099 0 0 1-131.801981 0v-162.217821a65.90099 65.90099 0 0 1 131.801981 0z" fill="#333333" p-id="9875" data-spm-anchor-id="a313x.search_index.0.i50.26903a81JS179x" class=""></path><path d="M512 669.148515a362.252673 362.252673 0 0 0 87.293465-10.138614 25.447921 25.447921 0 1 0-12.369109-49.273663 309.633267 309.633267 0 0 1-149.848712 0A25.447921 25.447921 0 1 0 424.706535 659.009901a362.252673 362.252673 0 0 0 87.293465 10.138614z" fill="#f6a805" p-id="9876" data-spm-anchor-id="a313x.search_index.0.i48.26903a81JS179x" class=""></path></svg>