<?xml version="1.0" standalone="no"?><!DOCTYPE svg PUBLIC "-//W3C//DTD SVG 1.1//EN" "http://www.w3.org/Graphics/SVG/1.1/DTD/svg11.dtd"><svg t="1770451523141" class="icon" viewBox="0 0 1024 1024" version="1.1" xmlns="http://www.w3.org/2000/svg" p-id="5424" width="550" height="550" data-spm-anchor-id="a313x.search_index.0.i14.6f393a81nwrwZE" xmlns:xlink="http://www.w3.org/1999/xlink"><path d="M252.884107 408.769095a21.314518 21.314518 0 0 0 20.591991-22.398307L252.884107 230.4858a21.314518 21.314518 0 0 0-20.591992-22.398307h-92.122067a21.314518 21.314518 0 0 0-20.591992 22.398307l-20.41136 155.884988a21.314518 21.314518 0 0 0 20.591992 22.398307h51.299347V776.71547H150.466043a11.018522 11.018522 0 0 0-10.295995 11.199153v11.199154a11.018522 11.018522 0 0 0 10.295995 11.199153h72.252602a11.018522 11.018522 0 0 0 10.295996-11.199153v-11.199154a11.018522 11.018522 0 0 0-10.295996-11.199153h-20.953254V408.769095z" fill="#f2ab1e" p-id="5425" data-spm-anchor-id="a313x.search_index.0.i13.6f393a81nwrwZE" class=""></path><path d="M152.633621 371.739637a15.353678 15.353678 0 0 1-14.992414-15.53431l14.992414-99.889222a14.992415 14.992415 0 0 1 14.992415-15.534309h37.390722a15.353678 15.353678 0 0 1 14.992415 15.534309l14.811783 99.889222a14.992415 14.992415 0 0 1-14.992415 15.53431z" fill="#faf154" p-id="5426" data-spm-anchor-id="a313x.search_index.0.i20.6f393a81nwrwZE" class=""></path><path d="M873.353325 496.556006l-8.670312-118.85553a43.712824 43.712824 0 0 0-43.532193-43.893455H399.376257a43.893456 43.893456 0 0 0-43.893456 43.893455l-6.863997 118.85553a43.893456 43.893456 0 0 0-43.893456 44.254719v252.884107a11.379785 11.379785 0 0 0 11.199154 11.199153h11.199153a11.199153 11.199153 0 0 0 9.934733-5.96084 11.379785 11.379785 0 0 0 1.26442-5.238313v-54.189452H885.094373v54.189452a11.379785 11.379785 0 0 0 1.26442 5.238313 11.199153 11.199153 0 0 0 9.934733 5.96084h11.199153a11.379785 11.379785 0 0 0 11.199154-11.199153v-252.884107a45.880402 45.880402 0 0 0-45.157876-43.893456" fill="#FFEABB" p-id="5427"></path><path d="M873.353325 497.097901l-8.670312-118.85553a43.893456 43.893456 0 0 0-43.893456-43.893456H399.376257a43.893456 43.893456 0 0 0-43.893456 43.893456l-6.863997 118.85553a43.893456 43.893456 0 0 0-43.893456 43.893456v252.884106a11.379785 11.379785 0 0 0 11.199154 11.199153h11.199153a11.379785 11.379785 0 0 0 11.199153-11.199153v-54.189451H885.094373v54.189451a11.379785 11.379785 0 0 0 11.199153 11.199153h11.199153a11.379785 11.379785 0 0 0 11.199154-11.199153v-252.884106a45.880402 45.880402 0 0 0-45.338508-43.893456z m-480.118539-109.823955A22.217675 22.217675 0 0 1 415.452461 364.875639h400.098783a22.217675 22.217675 0 0 1 22.037043 22.398307l8.670312 110.185218h-44.074087v-67.19492a22.217675 22.217675 0 0 0-22.037043-22.398306h-119.939319a22.217675 22.217675 0 0 0-22.037044 22.398306v67.19492H594.27765v-67.19492a22.217675 22.217675 0 0 0-22.037043-22.398306H451.578762a20.591992 20.591992 0 0 0-18.063151 10.295995v1.806315a21.675781 21.675781 0 0 0-2.528841 10.295996v67.19492h-44.615982z m-58.163345 163.652143a22.217675 22.217675 0 0 1 22.037044-22.398306h507.213265a21.856412 21.856412 0 0 1 22.037043 22.398306v90.315753H335.071441z m0 151.18857h551.106721v-30.707356H335.071441z" fill="#d88812" p-id="5428" data-spm-anchor-id="a313x.search_index.0.i22.6f393a81nwrwZE" class=""></path></svg>