<?xml version="1.0" standalone="no"?><!DOCTYPE svg PUBLIC "-//W3C//DTD SVG 1.1//EN" "http://www.w3.org/Graphics/SVG/1.1/DTD/svg11.dtd"><svg t="1769415926914" class="icon" viewBox="0 0 1024 1024" version="1.1" xmlns="http://www.w3.org/2000/svg" p-id="4697" data-spm-anchor-id="a313x.search_index.0.i20.6f393a81TcZQzw" xmlns:xlink="http://www.w3.org/1999/xlink" width="300" height="300"><path d="M307.2 409.6m102.4 0l307.2 0q102.4 0 102.4 102.4l0 307.2q0 102.4-102.4 102.4l-307.2 0q-102.4 0-102.4-102.4l0-307.2q0-102.4 102.4-102.4Z" fill="#1296db" p-id="4698" data-spm-anchor-id="a313x.search_index.0.i21.6f393a81TcZQzw" class=""></path><path d="M938.6496 900.2496a38.4 38.4 0 0 1 0 76.8H85.3504a38.4 38.4 0 1 1 0-76.8h853.2992z" fill="#7dc5eb" p-id="4699" data-spm-anchor-id="a313x.search_index.0.i10.6f393a81TcZQzw" class=""></path><path d="M435.968 95.5392a124.2624 124.2624 0 0 1 152.064 0L886.6816 327.68c30.208 23.4496 47.7184 59.392 47.7184 97.792v513.2288h-76.8V425.3696a46.4896 46.4896 0 0 0-18.0224-37.0688l-298.496-231.936a47.4112 47.4112 0 0 0-57.9584-0.2048L184.6784 388.5056a47.616 47.616 0 0 0-18.2784 37.0176l-2.1504 513.28-76.8-0.3072 2.1504-513.1264c0-37.6832 17.664-73.5232 47.616-97.28l298.752-232.5504z" fill="#7dc5eb" p-id="4700" data-spm-anchor-id="a313x.search_index.0.i7.6f393a81TcZQzw" class=""></path><path d="M661.3504 430.9504c56.6272 0 102.4 45.7728 102.4 102.4v405.2992a38.4 38.4 0 0 1-38.4 38.4H298.6496a38.4 38.4 0 0 1-38.4-38.4v-405.2992c0-56.6272 45.7728-102.4 102.4-102.4h298.7008z m0 76.8H362.6496c-14.1824 0-25.6 11.3664-25.6 25.6v366.8992h349.8496v-366.8992a25.4976 25.4976 0 0 0-20.992-25.1904l-4.608-0.4096z" fill="#7dc5eb" p-id="4701" data-spm-anchor-id="a313x.search_index.0.i9.6f393a81TcZQzw" class=""></path><path d="M426.6496 654.9504a38.4 38.4 0 0 1 38.4 38.4v64a38.4 38.4 0 0 1-76.8 0v-64a38.4 38.4 0 0 1 38.4-38.4zM576 281.6a38.4 38.4 0 1 1 0 76.8h-128a38.4 38.4 0 0 1 0-76.8h128z" fill="#7dc5eb" p-id="4702" data-spm-anchor-id="a313x.search_index.0.i8.6f393a81TcZQzw" class=""></path></svg>