<?xml version="1.0" standalone="no"?><!DOCTYPE svg PUBLIC "-//W3C//DTD SVG 1.1//EN" "http://www.w3.org/Graphics/SVG/1.1/DTD/svg11.dtd"><svg t="1771927895336" class="icon" viewBox="0 0 1024 1024" version="1.1" xmlns="http://www.w3.org/2000/svg" p-id="6054" width="600" height="600" xmlns:xlink="http://www.w3.org/1999/xlink"><path d="M204.096 270.336v551.04h322.816V896H128.768V309.376l-74.048 38.4L19.84 281.6 472.704 46.912a37.952 37.952 0 0 1 35.008 0l429.44 224-35.072 66.112-73.92-38.528v193.472h-75.328V259.2L490.112 122.176l-286.08 148.16zM424.64 496v85.312h129.152V496H424.64z m-53.76-74.688h236.736c11.84 0 21.504 9.6 21.504 21.376v192c0 11.776-9.6 21.312-21.504 21.312h-236.8a21.44 21.44 0 0 1-21.44-21.312v-192c0-11.776 9.6-21.376 21.504-21.376z" fill="#365AA4" p-id="6055"></path><path d="M819.84 912a154.688 154.688 0 1 1 0-309.312 154.688 154.688 0 0 1 0 309.312z m0-74.688a80 80 0 1 0 0-160 80 80 0 0 0 0 160z" fill="#365AA4" p-id="6056"></path><path d="M782.528 549.312h74.624v117.376h-74.624zM782.528 848h74.624v117.312h-74.624zM972.992 622.08l37.376 64.64-101.632 58.688-37.312-64.64zM714.368 771.392l37.312 64.64-101.568 58.688-37.376-64.64z" fill="#365AA4" p-id="6057"></path><path d="M1010.368 830.08l-37.376 64.64-101.568-58.688 37.312-64.64zM751.68 680.704l-37.312 64.64-101.632-58.624 37.376-64.64z" fill="#365AA4" p-id="6058"></path></svg>