<?xml version="1.0" standalone="no"?><!DOCTYPE svg PUBLIC "-//W3C//DTD SVG 1.1//EN" "http://www.w3.org/Graphics/SVG/1.1/DTD/svg11.dtd"><svg t="1772198490877" class="icon" viewBox="0 0 1024 1024" version="1.1" xmlns="http://www.w3.org/2000/svg" p-id="8196" xmlns:xlink="http://www.w3.org/1999/xlink" width="600" height="600"><path d="M958.144106 816.585043c0 78.526471-63.212694 142.190443-141.178393 142.190443H207.033263c-77.964676 0-141.178393-63.663972-141.178393-142.190443V202.254424c0-78.526471 63.212694-142.190443 141.178393-142.190443h609.93245c77.964676 0 141.178393 63.663972 141.178393 142.190443v614.330619z" fill="#d4237a" p-id="8197" data-spm-anchor-id="a313x.search_index.0.i13.6f393a81Qz0VAQ" class="selected"></path><path d="M774.071787 657.841599l-81.072457 79.34-35.499515-36.277228-11.41805 11.168364 35.500538 36.277228 11.96552 12.228509 92.48846-90.509387z" fill="#1296db" p-id="8198" data-spm-anchor-id="a313x.search_index.0.i16.6f393a81Qz0VAQ" class=""></path><path d="M712.168925 602.359984c-53.771671 0-97.365538 43.591821-97.365538 97.365538s43.593867 97.365538 97.365538 97.365538 97.365538-43.591821 97.365539-97.365538c-0.001023-53.773717-43.594891-97.365538-97.365539-97.365538z m-18.621102 158.218488l-11.96552-12.228509-35.500538-36.277228 11.41805-11.168364 35.500539 36.276205 81.071433-79.34 11.96552 12.228509-92.489484 90.509387z" fill="#FFFFFF" p-id="8199" data-spm-anchor-id="a313x.search_index.0.i15.6f393a81Qz0VAQ" class=""></path><path d="M670.488641 277.810237h-25.056676v80.738859H378.774743v-80.738859h-25.056676c-51.405787 0-93.470835 42.060955-93.470835 93.470834v358.303503c0 51.408857 42.065048 93.470835 93.470835 93.470834h316.771597c9.136078 0 17.951861-1.384533 26.311249-3.857864-55.034431-7.554046-98.262978-52.078099-103.617939-107.787912H399.160026c-19.274996 0-35.051307-15.773242-35.051308-35.051307s15.776312-35.051307 35.051308-35.051307h208.5365c20.590967-37.144992 60.153008-62.313208 105.633852-62.313208 18.104333 0 35.210943 4.097318 50.630121 11.238972V371.281071c-0.001023-51.408857-42.066071-93.470835-93.471858-93.470834z m-45.441959 324.549747H399.160026c-19.274996 0-35.051307-15.773242-35.051308-35.051307s15.776312-35.051307 35.051308-35.051307h225.886656c19.274996 0 35.051307 15.773242 35.051308 35.051307 0 19.279089-15.775288 35.051307-35.051308 35.051307z" fill="#FFFFFF" p-id="8200"></path><path d="M563.7752 249.601778c-3.198855-25.715685-25.088398-45.630247-51.671846-45.630247-26.580379 0-48.469921 19.914562-51.668777 45.630247h-56.04648v89.772606h215.430514v-89.772606h-56.043411z m-51.671846 30.28884c-13.145391 0-23.803125-10.657734-23.803126-23.804149 0-13.146415 10.657734-23.803125 23.803126-23.803125s23.803125 10.657734 23.803125 23.803125c0 13.147438-10.657734 23.804149-23.803125 23.804149z" fill="#FFFFFF" p-id="8201"></path></svg>