<?xml version="1.0" standalone="no"?><!DOCTYPE svg PUBLIC "-//W3C//DTD SVG 1.1//EN" "http://www.w3.org/Graphics/SVG/1.1/DTD/svg11.dtd"><svg t="1772890718945" class="icon" viewBox="0 0 1024 1024" version="1.1" xmlns="http://www.w3.org/2000/svg" p-id="3434" width="650" height="650" xmlns:xlink="http://www.w3.org/1999/xlink"><path d="M830.026432 557.110132c0-18.044053 13.53304-31.577093 31.577092-31.577092 18.044053 0 31.577093 13.53304 31.577093 31.577092v383.436124c0 36.088106-29.321586 63.154185-63.154185 63.154185H191.718062c-36.088106 0-63.154185-29.321586-63.154185-63.154185v-383.436124c0-18.044053 13.53304-31.577093 31.577092-31.577092 18.044053 0 31.577093 13.53304 31.577093 31.577092v383.436124h638.30837v-383.436124zM54.132159 480.422907c-13.53304 11.277533-33.832599 11.277533-45.110133-2.255506s-11.277533-31.577093 0-45.110132L424.035242 47.365639c49.621145-45.110132 124.052863-45.110132 173.674009 0l412.757709 385.69163c13.53304 11.277533 13.53304 31.577093 0 45.110132-11.277533 13.53304-31.577093 13.53304-45.110132 2.255506L552.599119 94.731278c-24.810573-22.555066-63.154185-22.555066-87.964758 0L54.132159 480.422907z m277.427312-2.255506l-20.299559-74.431718h65.409692l20.299559 74.431718h-65.409692z m72.176212 245.85022c9.022026 29.321586 29.321586 51.876652 72.176211 51.876652h232.317181v22.555066H473.656388c-45.110132 0-65.409692-18.044053-74.431718-33.832599-4.511013 13.53304-9.022026 24.810573-15.788547 33.832599h-69.920704c15.788546-24.810573 27.066079-54.132159 27.066079-87.964758V541.321586c0-9.022026-6.76652-15.788546-15.788546-15.788546h-13.53304v-24.810573h65.409692c15.788546 0 27.066079 13.53304 27.066079 27.066079v196.229075z m236.828194 24.810573c-38.343612-45.110132-69.920705-96.986784-96.986784-153.37445h-40.599119v112.775331c0 9.022026 6.76652 15.788546 15.788546 15.788546h36.088106v24.810573h-87.964758c-15.788546 0-27.066079-11.277533-27.066079-27.066079V437.568282c0-15.788546 11.277533-27.066079 27.066079-27.066079h205.251101c15.788546 0 27.066079 13.53304 27.066079 27.066079v130.819383c0 15.788546-11.277533 27.066079-27.066079 27.066079h-60.898678c9.022026 18.044053 18.044053 33.832599 27.066079 49.621146 4.511013-11.277533 9.022026-20.299559 11.277533-33.832599h58.643172c-9.022026 31.577093-20.299559 63.154185-33.832599 90.220264l33.832599 47.365639h-67.665198z m-137.585903-254.872247h133.074889V451.101322c0-9.022026-6.76652-15.788546-15.788546-15.788547H518.76652c-9.022026 0-15.788546 6.76652-15.788546 15.788547v42.854625z m117.286343 78.942731c9.022026 0 15.788546-6.76652 15.788546-15.788546V518.76652h-133.074889v56.387665h117.286343z" p-id="3435" data-spm-anchor-id="a313x.search_index.0.i13.26903a81JS179x" class="" fill="#f2510c"></path></svg>