<?xml version="1.0" standalone="no"?><!DOCTYPE svg PUBLIC "-//W3C//DTD SVG 1.1//EN" "http://www.w3.org/Graphics/SVG/1.1/DTD/svg11.dtd"><svg t="1772198674378" class="icon" viewBox="0 0 1024 1024" version="1.1" xmlns="http://www.w3.org/2000/svg" p-id="9666" xmlns:xlink="http://www.w3.org/1999/xlink" width="600" height="600"><path d="M946.106 914.5h-868.2c-14.8 0-26.8-12-26.9-26.9v-88.2h-23.7c-14.8 0.3-27-11.5-27.3-26.3s11.6-27.1 26.4-27.3h56.1c-5.8-28.7-8.7-57.8-8.7-87.1 0.1-231.5 180.2-423 411.3-437.3v-58.2h-48.3c-14.8-0.3-26.6-12.5-26.4-27.3 0.2-14.5 11.9-26.1 26.4-26.4h150.4c14.8-0.3 27.1 11.6 27.3 26.4 0.3 14.8-11.6 27.1-26.4 27.3h-49.2v58.2c55.8 3.3 110.5 17.4 161 41.5 182 86.3 281.6 285.5 241.6 482.9h55.2c14.8-0.3 27.1 11.6 27.3 26.4 0.3 14.8-11.6 27.1-26.4 27.3h-24.6v88.2c-0.1 14.8-12.1 26.8-26.9 26.8z m-841.4-115.1v61.4h814.5v-61.4h-814.5z m407.3-525.2c-212.5 0.2-384.7 172.6-384.5 385.1 0 29.1 3.3 58.1 9.9 86.4h749.1c47.9-207-81-413.7-288.1-461.7-28.3-6.5-57.3-9.8-86.4-9.8z m-314.2 428.6c-1.8 0-3.5-0.2-5.2-0.5-1.7-0.3-3.4-0.9-5-1.5-1.6-0.7-3.2-1.5-4.6-2.5-1.5-1-2.8-2.1-4.1-3.3-1.2-1.2-2.4-2.6-3.3-4.1-1-1.5-1.8-3-2.5-4.6-1.4-3.3-2.1-6.8-2.1-10.3 0-3.5 0.7-7 2.1-10.2 0.7-1.6 1.5-3.2 2.5-4.7s2.1-2.8 3.3-4.1c2.5-2.5 5.5-4.5 8.7-5.8 1.6-0.7 3.3-1.2 5-1.5 3.5-0.7 7-0.7 10.5 0 1.7 0.4 3.4 0.9 5 1.5 1.6 0.7 3.2 1.5 4.6 2.5 1.5 1 2.8 2.1 4.1 3.3 1.3 1.2 2.4 2.6 3.4 4.1 1 1.5 1.8 3 2.5 4.6 0.7 1.6 1.2 3.3 1.5 5 0.3 1.7 0.5 3.5 0.5 5.2 0 1.8-0.2 3.5-0.5 5.3-0.4 1.7-0.9 3.4-1.5 5-0.7 1.6-1.5 3.2-2.5 4.6-1 1.5-2.1 2.8-3.4 4.1-1.3 1.2-2.6 2.4-4.1 3.3-1.5 1-3 1.8-4.6 2.5-1.6 0.7-3.3 1.2-5 1.5-1.8 0.4-3.5 0.6-5.3 0.6z m6.4-82.8c-14.8 0-26.9-12-26.9-26.8 0-1.9 0.2-3.8 0.6-5.6 33.7-157.7 172.9-270.4 334.1-270.4 14.8-0.5 27.3 11.1 27.8 25.9 0.5 14.8-11.1 27.3-25.9 27.8h-1.9c-135.8 0.1-253.2 95.1-281.5 227.9-2.7 12.3-13.6 21.2-26.3 21.2z" p-id="9667" data-spm-anchor-id="a313x.search_index.0.i18.6f393a81Qz0VAQ" class="selected" fill="#f5c80d"></path></svg>