<?xml version="1.0" standalone="no"?><!DOCTYPE svg PUBLIC "-//W3C//DTD SVG 1.1//EN" "http://www.w3.org/Graphics/SVG/1.1/DTD/svg11.dtd"><svg t="1772898863602" class="icon" viewBox="0 0 1024 1024" version="1.1" xmlns="http://www.w3.org/2000/svg" p-id="6329" data-spm-anchor-id="a313x.search_index.0.i21.26903a81JS179x" width="550" height="550" xmlns:xlink="http://www.w3.org/1999/xlink"><path d="M934.3 596.2H89.7c-14.2 0-25.7 11.7-25.7 26s11.5 26 25.7 26h844.6c14.2 0 25.7-11.7 25.7-26s-11.5-26-25.7-26zM911.3 546.7c-0.5-49-9.7-96.2-27.4-140.2-17.1-42.6-41.7-81.3-73.1-115.2-59.3-63.9-140.6-107.1-230.2-122.6 3.9-9.2 5.9-19.1 5.9-29.3 0-41.5-33.4-75.2-74.5-75.2s-74.5 33.7-74.5 75.2c0 10.1 2 20.1 5.9 29.3-90.2 15.6-171.9 59.2-231.3 123.8-31.5 34.2-56 73.4-72.9 116.3-17.6 44.7-26.5 92.5-26.5 142.2 0 14.3 11.5 26 25.7 26h747.5c14.2 0 25.7-11.7 25.7-26 0-1.5-0.1-2.9-0.3-4.3zM512 116.1c12.7 0 23 10.4 23 23.2 0 12.8-10.3 23.2-23 23.2s-23-10.4-23-23.2c0-12.8 10.3-23.2 23-23.2zM165.1 524.9c6.3-85.3 43.7-163 106.1-219.9 64.1-58.4 149.6-90.5 240.8-90.5s176.6 32.1 240.8 90.5c62.4 56.8 99.8 134.6 106.1 219.9H165.1z" fill="#8a8a8a" p-id="6330" data-spm-anchor-id="a313x.search_index.0.i19.26903a81JS179x" class=""></path><path d="M206.8 489.7c3.5 6 9.1 10.2 15.6 12 2.1 0.6 4.3 0.9 6.5 0.9 11.7 0 22-8 24.9-19.5C273.5 406.8 327 350.6 413 315.8c13.2-5.3 19.6-20.5 14.3-33.8-5.3-13.3-20.3-19.8-33.4-14.5C293.3 308.2 227.7 378.2 204.1 470c-1.7 6.8-0.8 13.8 2.7 19.7zM876.3 683.2c-3.2-6.7-9.1-11.7-16.2-13.8-13.8-3.9-27.3-5.9-40.2-5.9-61.3 0-92.1 42.4-101 57.4-77.3 91.7-213.3 59.3-213.3 59.3 109.1 11.5 147-17.2 155.3-25.2l0.1-0.1c0.6-0.6 1.2-1.3 1.8-1.9 24.3-27.1 21.5-63.7 21.1-67.8-1.3-13.3-12.4-23.4-25.6-23.4H349.6c-32.3 0-67.2 13.5-103.5 40.1-28.6 20.9-58.3 50.1-88.4 86.7-52.5 63.9-88.9 129.9-90.5 132.6-4.4 8-4.3 17.9 0.3 25.8 4.6 7.9 13.1 12.8 22.2 12.8H315c12.2 0 22.5-8.4 25.1-20.4 3.5-15.9 11.9-24.8 17-28.9h203.7c44.2 0 87.2-8.8 127.6-26.1 33.7-14.4 65.8-34.8 95.3-60.5 53.8-46.8 84.4-98.7 93.1-119.5 2.9-6.7 2.7-14.5-0.5-21.2zM735.7 796.9c-52.1 41-110.9 61.8-175 61.8H349.6c-3.8 0-7.6 0.9-11 2.5-1.2 0.6-27.6 13.2-42.2 46.8H135.3c58.9-92.7 147.1-197.8 214.7-197.8h278c-0.9 1.6-9.3 35.5-44.9 35.5H439.6c-8.8 0-16.9 4.5-21.7 12-4.8 7.5 0.2 27.1 25.6 42 31.8 18.6 76.6 28.4 133.2 29h2.6c106.9 0 175.7-70.6 178.5-73.6 1.8-1.9 31.1-33.6 52.5-38.9-15 22.1-39.8 53.3-74.6 80.7z" fill="#ea986c" p-id="6331" data-spm-anchor-id="a313x.search_index.0.i20.26903a81JS179x" class=""></path></svg>